<mxfile host="app.diagrams.net" modified="2022-07-19T15:41:42.531Z" agent="5.0 (Windows NT 10.0; WOW64) AppleWebKit/537.36 (KHTML, like Gecko) Chrome/78.0.3904.108 Safari/537.36" etag="QGPB8Rw56Gox7eOiAOs2" version="20.1.1" type="github">
  <diagram id="8iAWAUzTFsbCDmBxHeGa" name="第 1 页">
    <mxGraphModel dx="358" dy="619" grid="1" gridSize="10" guides="1" tooltips="1" connect="1" arrows="1" fold="1" page="1" pageScale="1" pageWidth="827" pageHeight="1169" math="0" shadow="0">
      <root>
        <mxCell id="0" />
        <mxCell id="1" parent="0" />
        <mxCell id="n3k0nV79KyuZ0cb1bq1j-1" value="" style="strokeWidth=2;html=1;shape=mxgraph.flowchart.annotation_2;align=left;labelPosition=right;pointerEvents=1;" vertex="1" parent="1">
          <mxGeometry x="95" y="230" width="45" height="180" as="geometry" />
        </mxCell>
        <mxCell id="n3k0nV79KyuZ0cb1bq1j-2" value="数据类型" style="text;html=1;align=center;verticalAlign=middle;resizable=0;points=[];autosize=1;strokeColor=none;fillColor=none;" vertex="1" parent="1">
          <mxGeometry x="35" y="305" width="70" height="30" as="geometry" />
        </mxCell>
        <mxCell id="n3k0nV79KyuZ0cb1bq1j-3" value="基本类型" style="text;html=1;align=center;verticalAlign=middle;resizable=0;points=[];autosize=1;strokeColor=none;fillColor=none;" vertex="1" parent="1">
          <mxGeometry x="155" y="215" width="70" height="30" as="geometry" />
        </mxCell>
        <mxCell id="n3k0nV79KyuZ0cb1bq1j-4" value="构造类型" style="text;html=1;align=center;verticalAlign=middle;resizable=0;points=[];autosize=1;strokeColor=none;fillColor=none;" vertex="1" parent="1">
          <mxGeometry x="155" y="340" width="70" height="30" as="geometry" />
        </mxCell>
        <mxCell id="n3k0nV79KyuZ0cb1bq1j-8" value="指针类型" style="text;html=1;align=center;verticalAlign=middle;resizable=0;points=[];autosize=1;strokeColor=none;fillColor=none;" vertex="1" parent="1">
          <mxGeometry x="155" y="286" width="70" height="30" as="geometry" />
        </mxCell>
        <mxCell id="n3k0nV79KyuZ0cb1bq1j-9" value="空类型" style="text;html=1;align=center;verticalAlign=middle;resizable=0;points=[];autosize=1;strokeColor=none;fillColor=none;" vertex="1" parent="1">
          <mxGeometry x="155" y="390" width="60" height="30" as="geometry" />
        </mxCell>
        <mxCell id="n3k0nV79KyuZ0cb1bq1j-18" value="" style="strokeWidth=2;html=1;shape=mxgraph.flowchart.annotation_2;align=left;labelPosition=right;pointerEvents=1;" vertex="1" parent="1">
          <mxGeometry x="225" y="180" width="50" height="100" as="geometry" />
        </mxCell>
        <mxCell id="n3k0nV79KyuZ0cb1bq1j-20" value="整型" style="text;html=1;align=center;verticalAlign=middle;resizable=0;points=[];autosize=1;strokeColor=none;fillColor=none;" vertex="1" parent="1">
          <mxGeometry x="275" y="165" width="50" height="30" as="geometry" />
        </mxCell>
        <mxCell id="n3k0nV79KyuZ0cb1bq1j-22" value="字符型" style="text;html=1;align=center;verticalAlign=middle;resizable=0;points=[];autosize=1;strokeColor=none;fillColor=none;" vertex="1" parent="1">
          <mxGeometry x="270" y="195" width="60" height="30" as="geometry" />
        </mxCell>
        <mxCell id="n3k0nV79KyuZ0cb1bq1j-23" value="实型（浮点型）" style="text;html=1;align=center;verticalAlign=middle;resizable=0;points=[];autosize=1;strokeColor=none;fillColor=none;" vertex="1" parent="1">
          <mxGeometry x="270" y="225" width="110" height="30" as="geometry" />
        </mxCell>
        <mxCell id="n3k0nV79KyuZ0cb1bq1j-24" value="枚举型" style="text;html=1;align=center;verticalAlign=middle;resizable=0;points=[];autosize=1;strokeColor=none;fillColor=none;" vertex="1" parent="1">
          <mxGeometry x="270" y="265" width="60" height="30" as="geometry" />
        </mxCell>
        <mxCell id="n3k0nV79KyuZ0cb1bq1j-25" value="" style="strokeWidth=2;html=1;shape=mxgraph.flowchart.annotation_2;align=left;labelPosition=right;pointerEvents=1;" vertex="1" parent="1">
          <mxGeometry x="375" y="210" width="50" height="60" as="geometry" />
        </mxCell>
        <mxCell id="n3k0nV79KyuZ0cb1bq1j-26" value="单精度型" style="text;html=1;align=center;verticalAlign=middle;resizable=0;points=[];autosize=1;strokeColor=none;fillColor=none;" vertex="1" parent="1">
          <mxGeometry x="425" y="185" width="70" height="30" as="geometry" />
        </mxCell>
        <mxCell id="n3k0nV79KyuZ0cb1bq1j-27" value="双精度型" style="text;html=1;align=center;verticalAlign=middle;resizable=0;points=[];autosize=1;strokeColor=none;fillColor=none;" vertex="1" parent="1">
          <mxGeometry x="420" y="256" width="70" height="30" as="geometry" />
        </mxCell>
        <mxCell id="n3k0nV79KyuZ0cb1bq1j-28" value="" style="strokeWidth=2;html=1;shape=mxgraph.flowchart.annotation_2;align=left;labelPosition=right;pointerEvents=1;" vertex="1" parent="1">
          <mxGeometry x="230" y="305" width="50" height="100" as="geometry" />
        </mxCell>
        <mxCell id="n3k0nV79KyuZ0cb1bq1j-30" value="数组类型" style="text;html=1;align=center;verticalAlign=middle;resizable=0;points=[];autosize=1;strokeColor=none;fillColor=none;" vertex="1" parent="1">
          <mxGeometry x="280" y="295" width="70" height="30" as="geometry" />
        </mxCell>
        <mxCell id="n3k0nV79KyuZ0cb1bq1j-32" value="结构体类型" style="text;html=1;align=center;verticalAlign=middle;resizable=0;points=[];autosize=1;strokeColor=none;fillColor=none;" vertex="1" parent="1">
          <mxGeometry x="281" y="330" width="80" height="30" as="geometry" />
        </mxCell>
        <mxCell id="n3k0nV79KyuZ0cb1bq1j-33" value="共用体类型" style="text;html=1;align=center;verticalAlign=middle;resizable=0;points=[];autosize=1;strokeColor=none;fillColor=none;" vertex="1" parent="1">
          <mxGeometry x="279" y="385" width="80" height="30" as="geometry" />
        </mxCell>
      </root>
    </mxGraphModel>
  </diagram>
</mxfile>
